# xmcd
#
# Track frame offsets:
#  150
#  17958
#  37226
#  60221
#  73712
#  99430
#  122245
#  150171
#  167664
#  185839
#  202350
#  220955
#  240891
#  261464
#  277167
#  300952
#
# Disc length: 4316 seconds
#
# Revision: 2
# Processed by: cddbd v1.5.1PL0 Copyright (c) Steve Scherf et al.
# Submitted via: Collectorz.com_Music_Collector 6.9
#
DISCID=e910da10
DTITLE=Various Artist - Corridor To The Blues
DYEAR=2002
DGENRE=Blues
TTITLE0=Blues 'n' Trouble - Travelin' Light
TTITLE1=Richie Milton and The Lowdown - When Baby Don't Wanna Play
TTITLE2=The D7's - Iceman
TTITLE3=Bluesline - Can't Get Next To You
TTITLE4=Parkers Alibi - Funny How
TTITLE5=Errol Linton's Blues Vibe - You Know I Love You
TTITLE6=Peter Shoulder Band - When Will You Laugh Again
TTITLE7=Citizen Kane - Idle Hands
TTITLE8=The Junco Partners - Cocaine
TTITLE9=Neol Davies Box Of Blues - Pack A Pistol
TTITLE10=Bill Thomas - Cos' She's My Baby
TTITLE11=Nicky Moore's Blues Corporation - Resting In The Blues
TTITLE12=Amor - Take Me Home
TTITLE13=The Rhythm Method - Vehicle
TTITLE14=Marcus Malone - Walkin' Shoes
TTITLE15=Harry Skinner - Arizona
EXTD=
EXTT0=
EXTT1=
EXTT2=
EXTT3=
EXTT4=
EXTT5=
EXTT6=
EXTT7=
EXTT8=
EXTT9=
EXTT10=
EXTT11=
EXTT12=
EXTT13=
EXTT14=
EXTT15=
PLAYORDER=
